<svg width="130" height="24" viewBox="0 0 130 24" fill="none" xmlns="http://www.w3.org/2000/svg">
<g clip-path="url(#clip0_322_13054)">
<path d="M0 14.4449V14.3769C0 9.18017 4.21129 4.96735 9.88333 4.96735C15.5212 4.96735 19.6983 9.11561 19.6983 14.3103V14.3782C19.6983 19.5722 15.487 23.7885 9.81492 23.7885C4.17708 23.7892 0 19.6389 0 14.4449ZM14.6037 14.4449V14.3769C14.6291 13.7344 14.5243 13.0934 14.2957 12.4918C14.0669 11.8903 13.7189 11.3404 13.2722 10.8749C12.8256 10.4094 12.2894 10.0377 11.6954 9.78182C11.1014 9.52601 10.4617 9.3912 9.81425 9.38541C6.85986 9.38541 5.09323 11.6454 5.09323 14.3096V14.3776C5.06784 15.0201 5.1726 15.6612 5.40131 16.2626C5.63002 16.8642 5.97801 17.4141 6.42467 17.8796C6.87133 18.3451 7.40755 18.7168 8.00156 18.9727C8.59558 19.2286 9.23525 19.3633 9.88267 19.3691C12.8377 19.3725 14.6037 17.1098 14.6037 14.4449Z" fill="#EB1537"/>
<path d="M21.9542 2.41723C21.9928 1.7634 22.2816 1.14897 22.7614 0.699623C23.2412 0.250278 23.8758 0 24.5353 0C25.1948 0 25.8294 0.250278 26.3092 0.699623C26.789 1.14897 27.0778 1.7634 27.1165 2.41723V21.1378C27.0778 21.7917 26.789 22.4061 26.3092 22.8554C25.8294 23.3048 25.1948 23.5551 24.5353 23.5551C23.8758 23.5551 23.2412 23.3048 22.7614 22.8554C22.2816 22.4061 21.9928 21.7917 21.9542 21.1378V2.41723Z" fill="#EB1537"/>
<path d="M29.3826 14.4449V14.3769C29.365 13.1307 29.6004 11.8937 30.0746 10.7397C30.5489 9.5857 31.2523 8.53847 32.143 7.66029C33.0335 6.78215 34.0932 6.09113 35.2585 5.62847C36.4239 5.1658 37.6711 4.94095 38.9259 4.96735C41.1785 4.8546 43.393 5.57563 45.1412 6.99088C45.3985 7.20584 45.6048 7.47441 45.7456 7.77752C45.8865 8.08062 45.9583 8.41085 45.9561 8.74462C45.9548 9.04826 45.893 9.34867 45.7744 9.62856C45.6557 9.90837 45.4825 10.1622 45.2647 10.3753C45.0469 10.5884 44.7889 10.7566 44.5053 10.8704C44.2218 10.9842 43.9185 11.0411 43.6127 11.0379C43.0718 11.0391 42.5459 10.8609 42.1184 10.5317C41.2165 9.77769 40.072 9.37044 38.893 9.38401C36.3122 9.38401 34.4779 11.644 34.4779 14.3083V14.3763C34.4779 17.1417 36.278 19.3678 39.097 19.3678C40.3426 19.3666 41.547 18.924 42.4934 18.1195C42.8964 17.8214 43.3833 17.6562 43.8857 17.6473C44.33 17.6502 44.7629 17.7873 45.1268 18.0404C45.4908 18.2934 45.7686 18.6504 45.9235 19.064C46.0782 19.4776 46.1027 19.9281 45.9935 20.3558C45.8844 20.7835 45.6468 21.1681 45.3123 21.4586C44.4438 22.2489 43.4267 22.8613 42.3194 23.2607C41.2121 23.66 40.0364 23.8385 38.8595 23.7857C37.6143 23.8101 36.3768 23.5856 35.2206 23.1257C34.0645 22.6658 33.0131 21.9798 32.1291 21.1085C31.2451 20.2371 30.5465 19.1983 30.0746 18.0536C29.6029 16.9088 29.3675 15.6816 29.3826 14.4449Z" fill="#EB1537"/>
<path d="M48.6205 2.41723C48.6591 1.7634 48.9479 1.14897 49.4277 0.699623C49.9076 0.250278 50.5421 0 51.2016 0C51.8611 0 52.4957 0.250278 52.9756 0.699623C53.4553 1.14897 53.7441 1.7634 53.7828 2.41723V8.76364C54.9712 7.33673 56.4998 6.03483 59.1148 6.03483C63.0203 6.03483 65.296 8.44635 65.296 12.35V21.1378C65.2573 21.7917 64.9685 22.4061 64.4886 22.8554C64.0089 23.3048 63.3743 23.5551 62.7148 23.5551C62.0553 23.5551 61.4206 23.3048 60.9409 22.8554C60.4611 22.4061 60.1722 21.7917 60.1336 21.1378V13.8734C60.1336 11.5883 58.9786 10.4142 57.0088 10.4142C55.039 10.4142 53.7821 11.5883 53.7821 13.8734V21.1378C53.7435 21.7917 53.4546 22.4061 52.9748 22.8554C52.4951 23.3048 51.8605 23.5551 51.201 23.5551C50.5415 23.5551 49.9068 23.3048 49.4271 22.8554C48.9472 22.4061 48.6584 21.7917 48.6198 21.1378L48.6205 2.41723Z" fill="#EB1537"/>
<path d="M67.655 18.1889V18.1209C67.655 14.1744 70.6778 12.3534 74.9911 12.3534C76.5058 12.3401 78.0112 12.5913 79.4384 13.0954V12.7917C79.4384 10.6669 78.1138 9.48597 75.533 9.48597C74.3253 9.47306 73.1227 9.64371 71.9669 9.9922C71.7277 10.0805 71.4749 10.1265 71.2198 10.1281C70.9403 10.1331 70.6625 10.0826 70.4029 9.97962C70.1432 9.87675 69.9069 9.7234 69.7077 9.52859C69.5084 9.33386 69.3503 9.10164 69.2426 8.84542C69.1348 8.5892 69.0797 8.31427 69.0803 8.03661C69.0805 7.6035 69.214 7.18079 69.4628 6.82511C69.7117 6.46942 70.064 6.19771 70.4726 6.04638C72.3321 5.37422 74.3019 5.05388 76.2802 5.1019C79.0991 5.1019 81.138 5.8439 82.4271 7.12541C83.7858 8.47491 84.3967 10.4644 84.3967 12.8929V21.1229C84.3967 21.4488 84.3317 21.7715 84.205 22.0722C84.0783 22.373 83.8933 22.6458 83.66 22.8747C83.4258 23.1037 83.1493 23.2845 82.8448 23.4063C82.5404 23.5282 82.2147 23.5888 81.8865 23.5846C81.5831 23.6074 81.2782 23.5705 80.9892 23.4759C80.7002 23.3814 80.4327 23.2311 80.2024 23.0337C79.972 22.8363 79.7832 22.5956 79.6467 22.3256C79.5102 22.0555 79.4287 21.7613 79.407 21.4599V21.4259C78.7167 22.1871 77.8656 22.7874 76.9145 23.1839C75.9634 23.5803 74.9358 23.7632 73.9053 23.7192C70.474 23.7205 67.655 21.7643 67.655 18.1889ZM79.5082 17.0086V16.0981C78.4706 15.644 77.3477 15.414 76.2137 15.4233C74.0065 15.4233 72.6477 16.3006 72.6477 17.9191V17.987C72.6477 19.3697 73.8027 20.179 75.4666 20.179C77.8777 20.179 79.5082 18.8636 79.5082 17.0086Z" fill="#EB1537"/>
<path d="M89.685 17.7846C90.0708 17.7717 90.455 17.8366 90.815 17.9752C91.175 18.1139 91.5025 18.3234 91.7792 18.5913C92.055 18.8592 92.2733 19.1798 92.4217 19.5339C92.5692 19.8879 92.6433 20.268 92.64 20.6513V20.7193C92.6192 21.4841 92.2992 22.2108 91.7475 22.7447C91.195 23.2786 90.455 23.5773 89.685 23.5773C88.9142 23.5773 88.1742 23.2786 87.6225 22.7447C87.0708 22.2108 86.75 21.4841 86.73 20.7193V20.6513C86.7258 20.268 86.8 19.8878 86.9483 19.5337C87.0958 19.1797 87.315 18.859 87.5908 18.5911C87.8675 18.3232 88.195 18.1136 88.555 17.975C88.915 17.8364 89.2992 17.7716 89.685 17.7846Z" fill="#EB1537"/>
<path d="M111.66 21.0222C111.66 21.7021 111.387 22.3542 110.904 22.8348C110.42 23.3156 109.763 23.5856 109.078 23.5856C108.394 23.5856 107.737 23.3156 107.253 22.8348C106.769 22.3542 106.497 21.7021 106.497 21.0222V20.8184C105.309 22.3365 103.781 23.7192 101.166 23.7192C97.26 23.7192 94.9842 21.1562 94.9842 17.0072V7.66423C94.9842 6.98437 95.2567 6.33237 95.74 5.85164C96.2242 5.37092 96.8808 5.10086 97.5658 5.10086C98.25 5.10086 98.9067 5.37092 99.3908 5.85164C99.875 6.33237 100.147 6.98437 100.147 7.66423V15.39C100.147 17.8185 101.302 19.066 103.272 19.066C105.242 19.066 106.498 17.8178 106.498 15.39V7.66558C106.498 6.98572 106.77 6.33373 107.254 5.853C107.738 5.37228 108.395 5.10221 109.079 5.10221C109.764 5.10221 110.421 5.37228 110.904 5.853C111.388 6.33373 111.661 6.98572 111.661 7.66558L111.66 21.0222Z" fill="#EB1537"/>
<path d="M113.765 21.326V21.2248C113.77 20.7516 113.876 20.2846 114.074 19.8546C114.273 19.4245 114.562 19.041 114.92 18.729L123.377 9.45402H116.176C115.902 9.45642 115.63 9.40511 115.375 9.30299C115.121 9.20087 114.889 9.04991 114.693 8.85882C114.498 8.66773 114.343 8.44023 114.235 8.18933C114.128 7.93842 114.073 7.669 114.07 7.39652C114.073 6.84266 114.296 6.31224 114.69 5.9206C115.084 5.52895 115.618 5.30774 116.176 5.30505H127.486C128.946 5.30505 129.998 6.14831 129.998 7.36256V7.46379C129.993 7.93706 129.888 8.40398 129.689 8.834C129.49 9.26409 129.202 9.6476 128.843 9.95951L120.354 19.2346H127.894C128.452 19.2373 128.986 19.4585 129.38 19.8501C129.774 20.2418 129.998 20.7722 130 21.326C129.998 21.5985 129.942 21.8679 129.835 22.1188C129.728 22.3697 129.572 22.5973 129.377 22.7883C129.181 22.9794 128.949 23.1304 128.695 23.2325C128.441 23.3346 128.168 23.3859 127.894 23.3835H116.278C114.818 23.3835 113.765 22.5403 113.765 21.326Z" fill="#EB1537"/>
</g>
<defs>
<clipPath id="clip0_322_13054">
<rect width="130" height="24" fill="white"/>
</clipPath>
</defs>
</svg>
