<svg width="16" height="18" viewBox="0 0 16 18" fill="none" xmlns="http://www.w3.org/2000/svg">
<path d="M15.9167 11.5C15.9148 10.9998 15.7629 10.5116 15.4807 10.0986C15.1984 9.68557 14.7987 9.36675 14.3333 9.18333L15.8917 3.35C15.9242 3.22576 15.9276 3.09569 15.9016 2.96993C15.8756 2.84416 15.8208 2.72611 15.7417 2.625C15.6607 2.53025 15.5596 2.45487 15.4456 2.40439C15.3317 2.35391 15.2079 2.32963 15.0833 2.33333H3.66666L3.39166 1.28333C3.34384 1.10576 3.23864 0.948985 3.09243 0.837444C2.94622 0.725903 2.76722 0.665857 2.58332 0.666665H0.916656V2.33333H1.94166L4.00832 10.05C4.05716 10.2318 4.16611 10.3917 4.31743 10.5037C4.46875 10.6157 4.65352 10.6731 4.84166 10.6667H13.4167C13.6377 10.6667 13.8496 10.7545 14.0059 10.9107C14.1622 11.067 14.25 11.279 14.25 11.5C14.25 11.721 14.1622 11.933 14.0059 12.0893C13.8496 12.2455 13.6377 12.3333 13.4167 12.3333H2.58332C2.36231 12.3333 2.15035 12.4211 1.99407 12.5774C1.83779 12.7337 1.74999 12.9457 1.74999 13.1667C1.74999 13.3877 1.83779 13.5996 1.99407 13.7559C2.15035 13.9122 2.36231 14 2.58332 14H3.56666C3.4296 14.3776 3.38556 14.7827 3.43827 15.1809C3.49097 15.5792 3.63886 15.9588 3.86942 16.2878C4.09998 16.6168 4.40642 16.8853 4.76278 17.0707C5.11915 17.2561 5.51495 17.3529 5.91666 17.3529C6.31837 17.3529 6.71417 17.2561 7.07053 17.0707C7.42689 16.8853 7.73333 16.6168 7.96389 16.2878C8.19445 15.9588 8.34235 15.5792 8.39505 15.1809C8.44775 14.7827 8.40371 14.3776 8.26666 14H10.2333C10.1086 14.3438 10.0608 14.7109 10.0933 15.0752C10.1259 15.4395 10.238 15.7922 10.4217 16.1085C10.6054 16.4248 10.8563 16.6969 11.1567 16.9057C11.4571 17.1144 11.7996 17.2547 12.16 17.3166C12.5205 17.3786 12.8902 17.3606 13.243 17.2641C13.5959 17.1676 13.9232 16.9949 14.202 16.7581C14.4807 16.5212 14.7041 16.2261 14.8564 15.8936C15.0087 15.561 15.0862 15.1991 15.0833 14.8333C15.0818 14.4028 14.9668 13.9803 14.75 13.6083C15.1063 13.3837 15.4001 13.0726 15.6041 12.704C15.8081 12.3354 15.9156 11.9213 15.9167 11.5ZM12.6583 9H5.49999L4.11666 4H14L12.6583 9ZM5.91666 15.6667C5.75184 15.6667 5.59072 15.6178 5.45368 15.5262C5.31664 15.4347 5.20983 15.3045 5.14676 15.1522C5.08368 15 5.06718 14.8324 5.09934 14.6708C5.13149 14.5091 5.21086 14.3606 5.3274 14.2441C5.44394 14.1275 5.59243 14.0482 5.75408 14.016C5.91573 13.9839 6.08329 14.0004 6.23556 14.0634C6.38783 14.1265 6.51798 14.2333 6.60955 14.3704C6.70112 14.5074 6.74999 14.6685 6.74999 14.8333C6.74999 15.0543 6.66219 15.2663 6.50591 15.4226C6.34963 15.5789 6.13767 15.6667 5.91666 15.6667ZM12.5833 15.6667C12.4185 15.6667 12.2574 15.6178 12.1203 15.5262C11.9833 15.4347 11.8765 15.3045 11.8134 15.1522C11.7504 15 11.7338 14.8324 11.766 14.6708C11.7982 14.5091 11.8775 14.3606 11.9941 14.2441C12.1106 14.1275 12.2591 14.0482 12.4207 14.016C12.5824 13.9839 12.75 14.0004 12.9022 14.0634C13.0545 14.1265 13.1846 14.2333 13.2762 14.3704C13.3678 14.5074 13.4167 14.6685 13.4167 14.8333C13.4167 15.0543 13.3289 15.2663 13.1726 15.4226C13.0163 15.5789 12.8043 15.6667 12.5833 15.6667Z" fill="#0E0E2C"/>
</svg>
